<svg width="730" height="95" viewBox="0 0 730 95" fill="none" xmlns="http://www.w3.org/2000/svg">
<rect x="1" y="1" width="728" height="93" rx="3" fill="#0D1117"/>
<path d="M30.1506 41.9886C28.7528 41.9886 27.5021 41.799 26.3984 41.4197C25.299 41.0447 24.3658 40.495 23.5987 39.7706C22.8317 39.0462 22.2457 38.1662 21.8409 37.1307C21.4361 36.0952 21.2315 34.919 21.2273 33.6023C21.2315 32.2898 21.4361 31.0902 21.8409 30.0036C22.2457 28.9126 22.8381 27.9709 23.6179 27.1783C24.402 26.3814 25.3629 25.7656 26.5007 25.331C27.6385 24.8963 28.9403 24.679 30.4062 24.679C31.7273 24.679 32.9183 24.8601 33.9794 25.2223C35.0447 25.5803 35.9545 26.1087 36.7088 26.8075C37.4673 27.5021 38.0469 28.3565 38.4474 29.3707C38.8523 30.3849 39.0526 31.5483 39.0483 32.8608C39.0526 33.7557 38.9588 34.5398 38.767 35.2131C38.5753 35.8821 38.2919 36.4467 37.9169 36.907C37.5419 37.3672 37.0817 37.7251 36.5362 37.9808C35.995 38.2365 35.375 38.3963 34.6761 38.4602C34.0497 38.5199 33.6001 38.4901 33.3274 38.3707C33.0547 38.2514 32.8778 38.081 32.7969 37.8594C32.7159 37.6378 32.652 37.4034 32.6051 37.1562H32.5284C32.4304 37.4205 32.2024 37.6506 31.8445 37.8466C31.4865 38.0426 31.0646 38.1896 30.5788 38.2876C30.093 38.3857 29.6094 38.4176 29.1278 38.3835C28.6591 38.3494 28.1903 38.2365 27.7216 38.0447C27.2528 37.853 26.8224 37.5653 26.4304 37.1818C26.0426 36.7983 25.7315 36.3061 25.4972 35.7053C25.2628 35.1001 25.1435 34.3736 25.1392 33.5256C25.1435 32.6733 25.2607 31.9489 25.4908 31.3523C25.7251 30.7557 26.0256 30.2635 26.392 29.8757C26.7628 29.4879 27.1612 29.1896 27.5874 28.9808C28.0178 28.772 28.429 28.6335 28.821 28.5653C29.3366 28.4716 29.8374 28.4609 30.3232 28.5334C30.8089 28.6016 31.2223 28.7187 31.5632 28.8849C31.9041 29.0469 32.1151 29.2216 32.196 29.4091H32.2983V28.6932H34.7273V35.2386C34.7358 35.4943 34.7784 35.6648 34.8551 35.75C34.9361 35.8352 35.0298 35.8778 35.1364 35.8778C35.3366 35.8778 35.5241 35.7628 35.6989 35.5327C35.8778 35.2983 36.0206 34.9425 36.1271 34.4652C36.2379 33.9837 36.2912 33.3722 36.2869 32.6307C36.2912 31.6761 36.1676 30.8793 35.9162 30.2401C35.669 29.5966 35.3366 29.081 34.919 28.6932C34.5014 28.3011 34.0348 28.0071 33.5192 27.8111C33.0078 27.6108 32.4815 27.4787 31.9403 27.4148C31.3991 27.3466 30.8878 27.3125 30.4062 27.3125C29.3026 27.3125 28.3523 27.4787 27.5554 27.8111C26.7628 28.1392 26.1108 28.5909 25.5994 29.1662C25.0881 29.7372 24.7088 30.3913 24.4616 31.1286C24.2188 31.8615 24.0952 32.6349 24.0909 33.4489C24.0952 34.4077 24.2337 35.2536 24.5064 35.9865C24.7834 36.7195 25.1861 37.3331 25.7145 37.8274C26.2472 38.3217 26.9013 38.6946 27.6768 38.946C28.4567 39.2017 29.3494 39.3295 30.3551 39.3295C30.8622 39.3295 31.3544 39.2997 31.8317 39.2401C32.3089 39.1847 32.7479 39.108 33.1484 39.0099C33.549 38.9162 33.8878 38.8097 34.1648 38.6903L34.983 40.9915C34.7145 41.1705 34.3374 41.3345 33.8516 41.4837C33.37 41.6371 32.8118 41.7585 32.1768 41.848C31.5462 41.9418 30.8707 41.9886 30.1506 41.9886ZM30.1506 35.75C30.6406 35.75 31.0241 35.6605 31.3011 35.4815C31.5824 35.2983 31.7784 35.0341 31.8892 34.6889C32.0043 34.3395 32.0554 33.9176 32.0426 33.4233C32.0384 33.0483 31.9893 32.6989 31.8956 32.375C31.8061 32.0469 31.6229 31.7827 31.3459 31.5824C31.0732 31.3778 30.6577 31.2756 30.0994 31.2756C29.6349 31.2756 29.2408 31.3587 28.9169 31.5249C28.5973 31.6868 28.3523 31.9297 28.1818 32.2536C28.0156 32.5732 27.9304 32.9716 27.9261 33.4489C27.9304 33.8409 28.0007 34.2138 28.1371 34.5675C28.2777 34.9169 28.5078 35.2024 28.8274 35.424C29.1513 35.6413 29.5923 35.75 30.1506 35.75ZM45.1325 38.179C44.0672 38.179 43.1552 37.968 42.3967 37.5462C41.6382 37.12 41.0565 36.5277 40.6517 35.7692C40.2468 35.0064 40.0444 34.1222 40.0444 33.1165C40.0444 32.1108 40.2468 31.2287 40.6517 30.4702C41.0565 29.7074 41.6382 29.1151 42.3967 28.6932C43.1552 28.267 44.0672 28.054 45.1325 28.054C46.0956 28.054 46.9287 28.2287 47.6318 28.5781C48.3392 28.9233 48.8868 29.4134 49.2745 30.0483C49.6623 30.679 49.8584 31.4205 49.8626 32.2727H46.5899C46.543 31.7571 46.3939 31.3651 46.1424 31.0966C45.8953 30.8239 45.5757 30.6875 45.1836 30.6875C44.8768 30.6875 44.6084 30.777 44.3782 30.956C44.1481 31.1307 43.9691 31.397 43.8413 31.755C43.7135 32.1087 43.6495 32.554 43.6495 33.0909C43.6495 33.6278 43.7135 34.0753 43.8413 34.4332C43.9691 34.7869 44.1481 35.0533 44.3782 35.2322C44.6084 35.407 44.8768 35.4943 45.1836 35.4943C45.4436 35.4943 45.6737 35.4347 45.874 35.3153C46.0743 35.1918 46.2362 35.0128 46.3598 34.7784C46.4876 34.5398 46.5643 34.25 46.5899 33.9091H49.8626C49.8498 34.7741 49.6517 35.5284 49.2682 36.1719C48.8846 36.8111 48.3413 37.3054 47.6382 37.6548C46.9393 38.0043 46.1041 38.179 45.1325 38.179ZM54.6668 32.4773V38H51.1384V24.9091H54.539V30.0483H54.6412C54.8628 29.4219 55.2314 28.9339 55.7471 28.5845C56.2627 28.2308 56.8827 28.054 57.6072 28.054C58.3018 28.054 58.9047 28.2116 59.4161 28.527C59.9317 28.8423 60.3302 29.277 60.6114 29.831C60.8969 30.3849 61.0375 31.0199 61.0333 31.7358V38H57.5049V32.4773C57.5091 31.9915 57.3877 31.6101 57.1405 31.3331C56.8976 31.0561 56.5503 30.9176 56.0986 30.9176C55.8131 30.9176 55.5617 30.9815 55.3444 31.1094C55.1313 31.233 54.9651 31.4119 54.8458 31.6463C54.7307 31.8764 54.6711 32.1534 54.6668 32.4773ZM67.2997 38.179C66.2514 38.179 65.348 37.9787 64.5894 37.5781C63.8352 37.1733 63.2535 36.5937 62.8444 35.8395C62.4396 35.081 62.2372 34.1733 62.2372 33.1165C62.2372 32.1023 62.4417 31.2159 62.8508 30.4574C63.2599 29.6989 63.8373 29.1087 64.583 28.6868C65.3288 28.2649 66.2088 28.054 67.223 28.054C67.9644 28.054 68.6356 28.169 69.2365 28.3991C69.8373 28.6293 70.3508 28.9638 70.7769 29.4027C71.2031 29.8374 71.5312 30.3658 71.7613 30.9879C71.9914 31.6101 72.1065 32.3111 72.1065 33.0909V33.9091H63.3366V31.9659H68.8593C68.8551 31.6847 68.7826 31.4375 68.642 31.2244C68.5056 31.0071 68.3203 30.8388 68.0859 30.7195C67.8558 30.5959 67.5937 30.5341 67.2997 30.5341C67.0142 30.5341 66.7521 30.5959 66.5134 30.7195C66.2748 30.8388 66.083 31.005 65.9382 31.218C65.7975 31.4311 65.723 31.6804 65.7144 31.9659V34.0625C65.7144 34.3778 65.7805 34.6591 65.9126 34.9062C66.0447 35.1534 66.2343 35.3473 66.4815 35.4879C66.7286 35.6286 67.0269 35.6989 67.3764 35.6989C67.6193 35.6989 67.8409 35.6648 68.0411 35.5966C68.2457 35.5284 68.4204 35.4304 68.5653 35.3026C68.7102 35.1705 68.8167 35.0128 68.8849 34.8295H72.1065C71.9957 35.5114 71.7336 36.1037 71.3203 36.6065C70.9069 37.1051 70.3593 37.4929 69.6775 37.7699C68.9999 38.0426 68.2073 38.179 67.2997 38.179ZM73.3663 41.6818V28.1818H76.8691V29.8949H76.9458C77.0737 29.5625 77.2612 29.2578 77.5083 28.9808C77.7555 28.6996 78.0623 28.4759 78.4288 28.3097C78.7953 28.1392 79.2214 28.054 79.7072 28.054C80.3549 28.054 80.9707 28.2266 81.5545 28.5717C82.1426 28.9169 82.6198 29.4602 82.9863 30.2017C83.3571 30.9432 83.5424 31.9062 83.5424 33.0909C83.5424 34.2244 83.3656 35.1641 83.0119 35.9098C82.6625 36.6555 82.1937 37.2116 81.6056 37.5781C81.0218 37.9446 80.3805 38.1278 79.6816 38.1278C79.2214 38.1278 78.8102 38.0533 78.448 37.9041C78.09 37.7507 77.7832 37.544 77.5275 37.2841C77.2761 37.0199 77.0822 36.7216 76.9458 36.3892H76.8947V41.6818H73.3663ZM76.818 33.0909C76.818 33.5682 76.8798 33.9815 77.0034 34.331C77.1312 34.6761 77.3102 34.9446 77.5403 35.1364C77.7747 35.3239 78.0538 35.4176 78.3777 35.4176C78.7015 35.4176 78.9764 35.326 79.2022 35.1428C79.4323 34.9553 79.6071 34.6889 79.7264 34.3438C79.85 33.9943 79.9117 33.5767 79.9117 33.0909C79.9117 32.6051 79.85 32.1896 79.7264 31.8445C79.6071 31.495 79.4323 31.2287 79.2022 31.0455C78.9764 30.858 78.7015 30.7642 78.3777 30.7642C78.0538 30.7642 77.7747 30.858 77.5403 31.0455C77.3102 31.2287 77.1312 31.495 77.0034 31.8445C76.8798 32.1896 76.818 32.6051 76.818 33.0909ZM91.2071 33.7045V28.1818H94.7355V38H91.386V36.1335H91.2838C91.0707 36.7599 90.6978 37.25 90.1652 37.6037C89.6325 37.9531 88.9997 38.1278 88.2667 38.1278C87.5806 38.1278 86.9798 37.9702 86.4642 37.6548C85.9528 37.3395 85.5544 36.9048 85.2689 36.3509C84.9876 35.7969 84.8448 35.1619 84.8406 34.446V28.1818H88.369V33.7045C88.3733 34.1903 88.4968 34.5717 88.7397 34.8487C88.9869 35.1257 89.3321 35.2642 89.7752 35.2642C90.0693 35.2642 90.3228 35.2024 90.5359 35.0788C90.7532 34.951 90.9194 34.772 91.0345 34.5419C91.1538 34.3075 91.2113 34.0284 91.2071 33.7045ZM99.8784 32.4773V38H96.35V24.9091H99.7506V30.0483H99.8529C100.074 29.4219 100.443 28.9339 100.959 28.5845C101.474 28.2308 102.094 28.054 102.819 28.054C103.513 28.054 104.116 28.2116 104.628 28.527C105.143 28.8423 105.542 29.277 105.823 29.831C106.109 30.3849 106.249 31.0199 106.245 31.7358V38H102.717V32.4773C102.721 31.9915 102.599 31.6101 102.352 31.3331C102.109 31.0561 101.762 30.9176 101.31 30.9176C101.025 30.9176 100.773 30.9815 100.556 31.1094C100.343 31.233 100.177 31.4119 100.057 31.6463C99.9424 31.8764 99.8827 32.1534 99.8784 32.4773ZM110.543 38.1534C109.916 38.1534 109.362 38.0511 108.881 37.8466C108.403 37.6378 108.028 37.3224 107.756 36.9006C107.483 36.4787 107.347 35.9418 107.347 35.2898C107.347 34.7528 107.438 34.2947 107.621 33.9155C107.805 33.532 108.06 33.2188 108.388 32.9759C108.717 32.733 109.098 32.5476 109.533 32.4197C109.972 32.2919 110.445 32.2088 110.952 32.1705C111.501 32.1278 111.942 32.0767 112.275 32.017C112.611 31.9531 112.854 31.8658 113.003 31.755C113.153 31.6399 113.227 31.4886 113.227 31.3011V31.2756C113.227 31.0199 113.129 30.8239 112.933 30.6875C112.737 30.5511 112.486 30.483 112.179 30.483C111.842 30.483 111.567 30.5575 111.354 30.7067C111.146 30.8516 111.02 31.0753 110.977 31.3778H107.73C107.773 30.7812 107.962 30.2315 108.299 29.7287C108.64 29.2216 109.136 28.8168 109.788 28.5142C110.44 28.2074 111.254 28.054 112.23 28.054C112.933 28.054 113.564 28.1371 114.122 28.3033C114.68 28.4652 115.155 28.6932 115.548 28.9872C115.94 29.277 116.238 29.6179 116.442 30.0099C116.651 30.3977 116.756 30.8196 116.756 31.2756V38H113.457V36.6193H113.381C113.185 36.9858 112.946 37.282 112.665 37.5078C112.388 37.7337 112.07 37.8977 111.712 38C111.359 38.1023 110.969 38.1534 110.543 38.1534ZM111.693 35.929C111.962 35.929 112.213 35.8736 112.447 35.7628C112.686 35.652 112.88 35.4922 113.029 35.2834C113.178 35.0746 113.253 34.821 113.253 34.5227V33.7045C113.159 33.7429 113.059 33.7791 112.952 33.8132C112.85 33.8473 112.739 33.8793 112.62 33.9091C112.505 33.9389 112.381 33.9666 112.249 33.9922C112.121 34.0178 111.987 34.0412 111.847 34.0625C111.574 34.1051 111.35 34.1754 111.175 34.2734C111.005 34.3672 110.877 34.4844 110.792 34.625C110.711 34.7614 110.67 34.9148 110.67 35.0852C110.67 35.358 110.766 35.5668 110.958 35.7116C111.15 35.8565 111.395 35.929 111.693 35.929ZM127.236 31.3778H123.989C123.972 31.1776 123.901 31.005 123.778 30.8601C123.654 30.7152 123.494 30.6044 123.298 30.5277C123.107 30.4467 122.894 30.4062 122.659 30.4062C122.357 30.4062 122.097 30.4616 121.879 30.5724C121.662 30.6832 121.556 30.8409 121.56 31.0455C121.556 31.1903 121.617 31.3246 121.745 31.4482C121.877 31.5717 122.131 31.6676 122.506 31.7358L124.5 32.0938C125.506 32.277 126.254 32.5859 126.744 33.0206C127.238 33.451 127.487 34.0284 127.492 34.7528C127.487 35.4517 127.279 36.0589 126.865 36.5746C126.456 37.0859 125.896 37.4822 125.184 37.7635C124.477 38.0405 123.669 38.179 122.762 38.179C121.262 38.179 120.088 37.8722 119.24 37.2585C118.396 36.6449 117.925 35.8352 117.827 34.8295H121.33C121.377 35.1406 121.53 35.3814 121.79 35.5518C122.054 35.718 122.387 35.8011 122.787 35.8011C123.111 35.8011 123.377 35.7457 123.586 35.6349C123.799 35.5241 123.908 35.3665 123.912 35.1619C123.908 34.9744 123.814 34.8253 123.631 34.7145C123.452 34.6037 123.171 34.5142 122.787 34.446L121.048 34.1392C120.047 33.9645 119.297 33.6321 118.798 33.142C118.3 32.652 118.053 32.0213 118.057 31.25C118.053 30.5682 118.232 29.9908 118.594 29.5178C118.96 29.0405 119.482 28.6783 120.16 28.4311C120.842 28.1797 121.649 28.054 122.583 28.054C124.002 28.054 125.12 28.348 125.938 28.9361C126.761 29.5241 127.193 30.3381 127.236 31.3778ZM131.399 38.1534C130.773 38.1534 130.219 38.0511 129.737 37.8466C129.26 37.6378 128.885 37.3224 128.612 36.9006C128.34 36.4787 128.203 35.9418 128.203 35.2898C128.203 34.7528 128.295 34.2947 128.478 33.9155C128.661 33.532 128.917 33.2188 129.245 32.9759C129.573 32.733 129.955 32.5476 130.389 32.4197C130.828 32.2919 131.301 32.2088 131.808 32.1705C132.358 32.1278 132.799 32.0767 133.132 32.017C133.468 31.9531 133.711 31.8658 133.86 31.755C134.009 31.6399 134.084 31.4886 134.084 31.3011V31.2756C134.084 31.0199 133.986 30.8239 133.79 30.6875C133.594 30.5511 133.343 30.483 133.036 30.483C132.699 30.483 132.424 30.5575 132.211 30.7067C132.002 30.8516 131.877 31.0753 131.834 31.3778H128.587C128.629 30.7812 128.819 30.2315 129.156 29.7287C129.497 29.2216 129.993 28.8168 130.645 28.5142C131.297 28.2074 132.111 28.054 133.087 28.054C133.79 28.054 134.421 28.1371 134.979 28.3033C135.537 28.4652 136.012 28.6932 136.404 28.9872C136.796 29.277 137.095 29.6179 137.299 30.0099C137.508 30.3977 137.612 30.8196 137.612 31.2756V38H134.314V36.6193H134.237C134.041 36.9858 133.803 37.282 133.522 37.5078C133.245 37.7337 132.927 37.8977 132.569 38C132.215 38.1023 131.825 38.1534 131.399 38.1534ZM132.55 35.929C132.818 35.929 133.07 35.8736 133.304 35.7628C133.543 35.652 133.737 35.4922 133.886 35.2834C134.035 35.0746 134.11 34.821 134.11 34.5227V33.7045C134.016 33.7429 133.916 33.7791 133.809 33.8132C133.707 33.8473 133.596 33.8793 133.477 33.9091C133.362 33.9389 133.238 33.9666 133.106 33.9922C132.978 34.0178 132.844 34.0412 132.703 34.0625C132.431 34.1051 132.207 34.1754 132.032 34.2734C131.862 34.3672 131.734 34.4844 131.649 34.625C131.568 34.7614 131.527 34.9148 131.527 35.0852C131.527 35.358 131.623 35.5668 131.815 35.7116C132.007 35.8565 132.252 35.929 132.55 35.929ZM148.093 31.3778H144.846C144.829 31.1776 144.758 31.005 144.635 30.8601C144.511 30.7152 144.351 30.6044 144.155 30.5277C143.963 30.4467 143.75 30.4062 143.516 30.4062C143.213 30.4062 142.954 30.4616 142.736 30.5724C142.519 30.6832 142.412 30.8409 142.417 31.0455C142.412 31.1903 142.474 31.3246 142.602 31.4482C142.734 31.5717 142.988 31.6676 143.363 31.7358L145.357 32.0938C146.363 32.277 147.111 32.5859 147.601 33.0206C148.095 33.451 148.344 34.0284 148.348 34.7528C148.344 35.4517 148.135 36.0589 147.722 36.5746C147.313 37.0859 146.753 37.4822 146.041 37.7635C145.334 38.0405 144.526 38.179 143.618 38.179C142.118 38.179 140.944 37.8722 140.096 37.2585C139.253 36.6449 138.782 35.8352 138.684 34.8295H142.187C142.233 35.1406 142.387 35.3814 142.647 35.5518C142.911 35.718 143.243 35.8011 143.644 35.8011C143.968 35.8011 144.234 35.7457 144.443 35.6349C144.656 35.5241 144.765 35.3665 144.769 35.1619C144.765 34.9744 144.671 34.8253 144.488 34.7145C144.309 34.6037 144.027 34.5142 143.644 34.446L141.905 34.1392C140.904 33.9645 140.154 33.6321 139.655 33.142C139.157 32.652 138.91 32.0213 138.914 31.25C138.91 30.5682 139.088 29.9908 139.451 29.5178C139.817 29.0405 140.339 28.6783 141.017 28.4311C141.699 28.1797 142.506 28.054 143.439 28.054C144.858 28.054 145.977 28.348 146.795 28.9361C147.618 29.5241 148.05 30.3381 148.093 31.3778ZM153.049 32.4773V38H149.52V24.9091H152.921V30.0483H153.023C153.245 29.4219 153.613 28.9339 154.129 28.5845C154.645 28.2308 155.265 28.054 155.989 28.054C156.684 28.054 157.287 28.2116 157.798 28.527C158.314 28.8423 158.712 29.277 158.993 29.831C159.279 30.3849 159.42 31.0199 159.415 31.7358V38H155.887V32.4773C155.891 31.9915 155.77 31.6101 155.522 31.3331C155.28 31.0561 154.932 30.9176 154.481 30.9176C154.195 30.9176 153.944 30.9815 153.726 31.1094C153.513 31.233 153.347 31.4119 153.228 31.6463C153.113 31.8764 153.053 32.1534 153.049 32.4773ZM163.713 38.1534C163.086 38.1534 162.532 38.0511 162.051 37.8466C161.574 37.6378 161.199 37.3224 160.926 36.9006C160.653 36.4787 160.517 35.9418 160.517 35.2898C160.517 34.7528 160.608 34.2947 160.792 33.9155C160.975 33.532 161.231 33.2188 161.559 32.9759C161.887 32.733 162.268 32.5476 162.703 32.4197C163.142 32.2919 163.615 32.2088 164.122 32.1705C164.672 32.1278 165.113 32.0767 165.445 32.017C165.782 31.9531 166.025 31.8658 166.174 31.755C166.323 31.6399 166.398 31.4886 166.398 31.3011V31.2756C166.398 31.0199 166.3 30.8239 166.103 30.6875C165.907 30.5511 165.656 30.483 165.349 30.483C165.013 30.483 164.738 30.5575 164.525 30.7067C164.316 30.8516 164.19 31.0753 164.148 31.3778H160.9C160.943 30.7812 161.133 30.2315 161.469 29.7287C161.81 29.2216 162.307 28.8168 162.959 28.5142C163.611 28.2074 164.425 28.054 165.4 28.054C166.103 28.054 166.734 28.1371 167.292 28.3033C167.851 28.4652 168.326 28.6932 168.718 28.9872C169.11 29.277 169.408 29.6179 169.613 30.0099C169.822 30.3977 169.926 30.8196 169.926 31.2756V38H166.628V36.6193H166.551C166.355 36.9858 166.116 37.282 165.835 37.5078C165.558 37.7337 165.241 37.8977 164.883 38C164.529 38.1023 164.139 38.1534 163.713 38.1534ZM164.863 35.929C165.132 35.929 165.383 35.8736 165.618 35.7628C165.856 35.652 166.05 35.4922 166.199 35.2834C166.349 35.0746 166.423 34.821 166.423 34.5227V33.7045C166.329 33.7429 166.229 33.7791 166.123 33.8132C166.02 33.8473 165.91 33.8793 165.79 33.9091C165.675 33.9389 165.552 33.9666 165.42 33.9922C165.292 34.0178 165.157 34.0412 165.017 34.0625C164.744 34.1051 164.52 34.1754 164.346 34.2734C164.175 34.3672 164.047 34.4844 163.962 34.625C163.881 34.7614 163.841 34.9148 163.841 35.0852C163.841 35.358 163.937 35.5668 164.128 35.7116C164.32 35.8565 164.565 35.929 164.863 35.929ZM177.849 24.2955L173.631 39.9688H170.639L174.858 24.2955H177.849ZM188.565 28.1818L185.266 38H181.175L177.877 28.1818H181.585L183.17 34.6761H183.272L184.857 28.1818H188.565ZM195.831 31.4545V34.1136H189.695V31.4545H195.831ZM202.481 38.179C201.416 38.179 200.504 37.968 199.746 37.5462C198.987 37.12 198.405 36.5277 198 35.7692C197.596 35.0064 197.393 34.1222 197.393 33.1165C197.393 32.1108 197.596 31.2287 198 30.4702C198.405 29.7074 198.987 29.1151 199.746 28.6932C200.504 28.267 201.416 28.054 202.481 28.054C203.444 28.054 204.277 28.2287 204.981 28.5781C205.688 28.9233 206.236 29.4134 206.623 30.0483C207.011 30.679 207.207 31.4205 207.211 32.2727H203.939C203.892 31.7571 203.743 31.3651 203.491 31.0966C203.244 30.8239 202.925 30.6875 202.532 30.6875C202.226 30.6875 201.957 30.777 201.727 30.956C201.497 31.1307 201.318 31.397 201.19 31.755C201.062 32.1087 200.998 32.554 200.998 33.0909C200.998 33.6278 201.062 34.0753 201.19 34.4332C201.318 34.7869 201.497 35.0533 201.727 35.2322C201.957 35.407 202.226 35.4943 202.532 35.4943C202.792 35.4943 203.023 35.4347 203.223 35.3153C203.423 35.1918 203.585 35.0128 203.709 34.7784C203.836 34.5398 203.913 34.25 203.939 33.9091H207.211C207.199 34.7741 207 35.5284 206.617 36.1719C206.233 36.8111 205.69 37.3054 204.987 37.6548C204.288 38.0043 203.453 38.179 202.481 38.179ZM213.217 38.179C212.152 38.179 211.24 37.968 210.482 37.5462C209.723 37.12 209.141 36.5277 208.737 35.7692C208.332 35.0064 208.129 34.1222 208.129 33.1165C208.129 32.1108 208.332 31.2287 208.737 30.4702C209.141 29.7074 209.723 29.1151 210.482 28.6932C211.24 28.267 212.152 28.054 213.217 28.054C214.283 28.054 215.195 28.267 215.953 28.6932C216.712 29.1151 217.293 29.7074 217.698 30.4702C218.103 31.2287 218.305 32.1108 218.305 33.1165C218.305 34.1222 218.103 35.0064 217.698 35.7692C217.293 36.5277 216.712 37.12 215.953 37.5462C215.195 37.968 214.283 38.179 213.217 38.179ZM213.243 35.571C213.541 35.571 213.799 35.4709 214.016 35.2706C214.234 35.0703 214.402 34.7848 214.521 34.4141C214.641 34.0433 214.7 33.6023 214.7 33.0909C214.7 32.5753 214.641 32.1342 214.521 31.7678C214.402 31.397 214.234 31.1115 214.016 30.9112C213.799 30.7109 213.541 30.6108 213.243 30.6108C212.928 30.6108 212.657 30.7109 212.431 30.9112C212.205 31.1115 212.033 31.397 211.913 31.7678C211.794 32.1342 211.734 32.5753 211.734 33.0909C211.734 33.6023 211.794 34.0433 211.913 34.4141C212.033 34.7848 212.205 35.0703 212.431 35.2706C212.657 35.4709 212.928 35.571 213.243 35.571ZM223.086 32.4773V38H219.557V28.1818H222.907V30.0483H223.009C223.222 29.4261 223.597 28.9382 224.134 28.5845C224.675 28.2308 225.306 28.054 226.026 28.054C226.721 28.054 227.324 28.2138 227.835 28.5334C228.351 28.8487 228.749 29.2834 229.03 29.8374C229.316 30.3913 229.456 31.0241 229.452 31.7358V38H225.924V32.4773C225.928 31.9915 225.804 31.6101 225.553 31.3331C225.306 31.0561 224.961 30.9176 224.517 30.9176C224.228 30.9176 223.974 30.9815 223.757 31.1094C223.544 31.233 223.38 31.4119 223.265 31.6463C223.15 31.8764 223.09 32.1534 223.086 32.4773ZM236.869 28.1818V30.7386H230.4V28.1818H236.869ZM231.653 25.8295H235.182V34.8423C235.182 34.9787 235.205 35.0938 235.252 35.1875C235.299 35.277 235.371 35.3452 235.469 35.392C235.567 35.4347 235.693 35.456 235.846 35.456C235.953 35.456 236.076 35.4432 236.217 35.4176C236.362 35.392 236.468 35.3707 236.537 35.3537L237.048 37.8338C236.89 37.8807 236.665 37.9382 236.37 38.0064C236.081 38.0746 235.736 38.1193 235.335 38.1406C234.525 38.1832 233.846 38.1001 233.296 37.8913C232.746 37.6783 232.333 37.3437 232.056 36.8878C231.779 36.4318 231.645 35.8608 231.653 35.1747V25.8295ZM240.865 38.1534C240.238 38.1534 239.684 38.0511 239.203 37.8466C238.725 37.6378 238.35 37.3224 238.078 36.9006C237.805 36.4787 237.669 35.9418 237.669 35.2898C237.669 34.7528 237.76 34.2947 237.943 33.9155C238.127 33.532 238.382 33.2188 238.711 32.9759C239.039 32.733 239.42 32.5476 239.855 32.4197C240.294 32.2919 240.767 32.2088 241.274 32.1705C241.823 32.1278 242.265 32.0767 242.597 32.017C242.934 31.9531 243.176 31.8658 243.326 31.755C243.475 31.6399 243.549 31.4886 243.549 31.3011V31.2756C243.549 31.0199 243.451 30.8239 243.255 30.6875C243.059 30.5511 242.808 30.483 242.501 30.483C242.164 30.483 241.89 30.5575 241.676 30.7067C241.468 30.8516 241.342 31.0753 241.299 31.3778H238.052C238.095 30.7812 238.284 30.2315 238.621 29.7287C238.962 29.2216 239.458 28.8168 240.11 28.5142C240.762 28.2074 241.576 28.054 242.552 28.054C243.255 28.054 243.886 28.1371 244.444 28.3033C245.002 28.4652 245.478 28.6932 245.87 28.9872C246.262 29.277 246.56 29.6179 246.765 30.0099C246.973 30.3977 247.078 30.8196 247.078 31.2756V38H243.779V36.6193H243.703C243.507 36.9858 243.268 37.282 242.987 37.5078C242.71 37.7337 242.392 37.8977 242.034 38C241.681 38.1023 241.291 38.1534 240.865 38.1534ZM242.015 35.929C242.284 35.929 242.535 35.8736 242.769 35.7628C243.008 35.652 243.202 35.4922 243.351 35.2834C243.5 35.0746 243.575 34.821 243.575 34.5227V33.7045C243.481 33.7429 243.381 33.7791 243.274 33.8132C243.172 33.8473 243.061 33.8793 242.942 33.9091C242.827 33.9389 242.703 33.9666 242.571 33.9922C242.443 34.0178 242.309 34.0412 242.169 34.0625C241.896 34.1051 241.672 34.1754 241.497 34.2734C241.327 34.3672 241.199 34.4844 241.114 34.625C241.033 34.7614 240.993 34.9148 240.993 35.0852C240.993 35.358 241.088 35.5668 241.28 35.7116C241.472 35.8565 241.717 35.929 242.015 35.929ZM248.584 38V28.1818H252.112V38H248.584ZM250.348 27.1591C249.871 27.1591 249.461 27.0014 249.121 26.6861C248.78 26.3707 248.609 25.9915 248.609 25.5483C248.609 25.1051 248.78 24.7259 249.121 24.4105C249.461 24.0952 249.871 23.9375 250.348 23.9375C250.829 23.9375 251.238 24.0952 251.575 24.4105C251.916 24.7259 252.086 25.1051 252.086 25.5483C252.086 25.9915 251.916 26.3707 251.575 26.6861C251.238 27.0014 250.829 27.1591 250.348 27.1591ZM257.258 32.4773V38H253.73V28.1818H257.079V30.0483H257.182C257.395 29.4261 257.77 28.9382 258.307 28.5845C258.848 28.2308 259.478 28.054 260.199 28.054C260.893 28.054 261.496 28.2138 262.008 28.5334C262.523 28.8487 262.922 29.2834 263.203 29.8374C263.488 30.3913 263.629 31.0241 263.625 31.7358V38H260.096V32.4773C260.101 31.9915 259.977 31.6101 259.726 31.3331C259.478 31.0561 259.133 30.9176 258.69 30.9176C258.4 30.9176 258.147 30.9815 257.929 31.1094C257.716 31.233 257.552 31.4119 257.437 31.6463C257.322 31.8764 257.262 32.1534 257.258 32.4773ZM269.891 38.179C268.843 38.179 267.939 37.9787 267.181 37.5781C266.427 37.1733 265.845 36.5937 265.436 35.8395C265.031 35.081 264.829 34.1733 264.829 33.1165C264.829 32.1023 265.033 31.2159 265.442 30.4574C265.851 29.6989 266.429 29.1087 267.174 28.6868C267.92 28.2649 268.8 28.054 269.814 28.054C270.556 28.054 271.227 28.169 271.828 28.3991C272.429 28.6293 272.942 28.9638 273.368 29.4027C273.794 29.8374 274.123 30.3658 274.353 30.9879C274.583 31.6101 274.698 32.3111 274.698 33.0909V33.9091H265.928V31.9659H271.451C271.446 31.6847 271.374 31.4375 271.233 31.2244C271.097 31.0071 270.912 30.8388 270.677 30.7195C270.447 30.5959 270.185 30.5341 269.891 30.5341C269.606 30.5341 269.343 30.5959 269.105 30.7195C268.866 30.8388 268.674 31.005 268.53 31.218C268.389 31.4311 268.314 31.6804 268.306 31.9659V34.0625C268.306 34.3778 268.372 34.6591 268.504 34.9062C268.636 35.1534 268.826 35.3473 269.073 35.4879C269.32 35.6286 269.618 35.6989 269.968 35.6989C270.211 35.6989 270.432 35.6648 270.633 35.5966C270.837 35.5284 271.012 35.4304 271.157 35.3026C271.302 35.1705 271.408 35.0128 271.476 34.8295H274.698C274.587 35.5114 274.325 36.1037 273.912 36.6065C273.498 37.1051 272.951 37.4929 272.269 37.7699C271.591 38.0426 270.799 38.179 269.891 38.179ZM275.958 38V28.1818H279.384V30.0483H279.486C279.665 29.358 279.948 28.853 280.336 28.5334C280.728 28.2138 281.186 28.054 281.711 28.054C281.864 28.054 282.015 28.0668 282.164 28.0923C282.318 28.1136 282.465 28.1456 282.605 28.1882V31.1989C282.431 31.1392 282.216 31.0945 281.96 31.0646C281.704 31.0348 281.485 31.0199 281.301 31.0199C280.956 31.0199 280.645 31.0987 280.368 31.2564C280.095 31.4098 279.88 31.6271 279.723 31.9084C279.565 32.1854 279.486 32.5114 279.486 32.8864V38H275.958Z" fill="#C9D1D9"/>
<rect x="20" y="52" width="75" height="23" rx="4" fill="#00FF75"/>
<path d="M34.2727 61.4545L31.8523 68H30.8295L28.4091 61.4545H29.5L31.3068 66.6705H31.375L33.1818 61.4545H34.2727ZM39.7251 65.3239V61.4545H40.7308V68H39.7251V66.892H39.657C39.5036 67.2244 39.2649 67.5071 38.9411 67.7401C38.6172 67.9702 38.2081 68.0852 37.7138 68.0852C37.3047 68.0852 36.9411 67.9957 36.6229 67.8168C36.3047 67.6349 36.0547 67.3622 35.8729 66.9986C35.6911 66.6321 35.6001 66.1705 35.6001 65.6136V61.4545H36.6058V65.5455C36.6058 66.0227 36.7393 66.4034 37.0064 66.6875C37.2763 66.9716 37.62 67.1136 38.0376 67.1136C38.2876 67.1136 38.5419 67.0497 38.8004 66.9219C39.0618 66.794 39.2805 66.598 39.4567 66.3338C39.6357 66.0696 39.7251 65.733 39.7251 65.3239ZM45.3171 68.1364C44.6864 68.1364 44.1424 67.9972 43.685 67.7188C43.2305 67.4375 42.8796 67.0455 42.6325 66.5426C42.3881 66.0369 42.266 65.4489 42.266 64.7784C42.266 64.108 42.3881 63.517 42.6325 63.0057C42.8796 62.4915 43.2234 62.0909 43.6637 61.804C44.1069 61.5142 44.6239 61.3693 45.2148 61.3693C45.5558 61.3693 45.8924 61.4261 46.2248 61.5398C46.5572 61.6534 46.8597 61.8381 47.1325 62.0938C47.4052 62.3466 47.6225 62.6818 47.7844 63.0994C47.9464 63.517 48.0273 64.0312 48.0273 64.642V65.0682H42.9819V64.1989H47.0046C47.0046 63.8295 46.9308 63.5 46.783 63.2102C46.6381 62.9205 46.4308 62.6918 46.1609 62.5241C45.8938 62.3565 45.5785 62.2727 45.2148 62.2727C44.8143 62.2727 44.4677 62.3722 44.1751 62.571C43.8853 62.767 43.6623 63.0227 43.506 63.3381C43.3498 63.6534 43.2717 63.9915 43.2717 64.3523V64.9318C43.2717 65.4261 43.3569 65.8452 43.5273 66.1889C43.7006 66.5298 43.9407 66.7898 44.2475 66.9688C44.5543 67.1449 44.9109 67.233 45.3171 67.233C45.5813 67.233 45.82 67.196 46.033 67.1222C46.2489 67.0455 46.435 66.9318 46.5913 66.7812C46.7475 66.6278 46.8683 66.4375 46.9535 66.2102L47.9251 66.483C47.8228 66.8125 47.6509 67.1023 47.4094 67.3523C47.168 67.5994 46.8697 67.7926 46.5146 67.9318C46.1594 68.0682 45.7603 68.1364 45.3171 68.1364ZM52.9322 70.4545V61.4545H53.9038V62.4943H54.0231C54.0969 62.3807 54.1992 62.2358 54.3299 62.0597C54.4634 61.8807 54.6538 61.7216 54.9009 61.5824C55.1509 61.4403 55.489 61.3693 55.9151 61.3693C56.4663 61.3693 56.9521 61.5071 57.3725 61.7827C57.793 62.0582 58.1211 62.4489 58.3569 62.9545C58.5927 63.4602 58.7106 64.0568 58.7106 64.7443C58.7106 65.4375 58.5927 66.0384 58.3569 66.5469C58.1211 67.0526 57.7944 67.4446 57.3768 67.723C56.9592 67.9986 56.4776 68.1364 55.9322 68.1364C55.5117 68.1364 55.1751 68.0668 54.9222 67.9276C54.6694 67.7855 54.4748 67.625 54.3384 67.446C54.2021 67.2642 54.0969 67.1136 54.0231 66.9943H53.9379V70.4545H52.9322ZM53.9208 64.7273C53.9208 65.2216 53.9933 65.6577 54.1381 66.0355C54.283 66.4105 54.4947 66.7045 54.7731 66.9176C55.0515 67.1278 55.3924 67.233 55.7958 67.233C56.2163 67.233 56.5671 67.1222 56.8484 66.9006C57.1325 66.6761 57.3455 66.375 57.4876 65.9972C57.6325 65.6165 57.7049 65.1932 57.7049 64.7273C57.7049 64.267 57.6339 63.8523 57.4918 63.483C57.3526 63.1108 57.141 62.8168 56.8569 62.6009C56.5756 62.3821 56.2219 62.2727 55.7958 62.2727C55.3867 62.2727 55.043 62.3764 54.7646 62.5838C54.4862 62.7884 54.2759 63.0753 54.1339 63.4446C53.9918 63.8111 53.9208 64.2386 53.9208 64.7273ZM61.2504 59.2727V68H60.2447V59.2727H61.2504ZM65.0185 68.1534C64.6037 68.1534 64.2273 68.0753 63.8892 67.919C63.5511 67.7599 63.2827 67.5312 63.0838 67.233C62.8849 66.9318 62.7855 66.5682 62.7855 66.142C62.7855 65.767 62.8594 65.4631 63.0071 65.2301C63.1548 64.9943 63.3523 64.8097 63.5994 64.6761C63.8466 64.5426 64.1193 64.4432 64.4176 64.3778C64.7188 64.3097 65.0213 64.2557 65.3253 64.2159C65.723 64.1648 66.0455 64.1264 66.2926 64.1009C66.5426 64.0724 66.7244 64.0256 66.8381 63.9602C66.9545 63.8949 67.0128 63.7812 67.0128 63.6193V63.5852C67.0128 63.1648 66.8977 62.8381 66.6676 62.6051C66.4403 62.3722 66.0952 62.2557 65.6321 62.2557C65.152 62.2557 64.7756 62.3608 64.5028 62.571C64.2301 62.7812 64.0384 63.0057 63.9276 63.2443L62.973 62.9034C63.1435 62.5057 63.3707 62.196 63.6548 61.9744C63.9418 61.75 64.2543 61.5937 64.5923 61.5057C64.9332 61.4148 65.2685 61.3693 65.598 61.3693C65.8082 61.3693 66.0497 61.3949 66.3224 61.446C66.598 61.4943 66.8636 61.5952 67.1193 61.7486C67.3778 61.902 67.5923 62.1335 67.7628 62.4432C67.9332 62.7528 68.0185 63.1676 68.0185 63.6875V68H67.0128V67.1136H66.9616C66.8935 67.2557 66.7798 67.4077 66.6207 67.5696C66.4616 67.7315 66.25 67.8693 65.9858 67.983C65.7216 68.0966 65.3991 68.1534 65.0185 68.1534ZM65.1719 67.25C65.5696 67.25 65.9048 67.1719 66.1776 67.0156C66.4531 66.8594 66.6605 66.6577 66.7997 66.4105C66.9418 66.1634 67.0128 65.9034 67.0128 65.6307V64.7102C66.9702 64.7614 66.8764 64.8082 66.7315 64.8509C66.5895 64.8906 66.4247 64.9261 66.2372 64.9574C66.0526 64.9858 65.8722 65.0114 65.696 65.0341C65.5227 65.054 65.3821 65.071 65.2741 65.0852C65.0128 65.1193 64.7685 65.1747 64.5412 65.2514C64.3168 65.3253 64.1349 65.4375 63.9957 65.5881C63.8594 65.7358 63.7912 65.9375 63.7912 66.1932C63.7912 66.5426 63.9205 66.8068 64.179 66.9858C64.4403 67.1619 64.7713 67.25 65.1719 67.25ZM72.4961 70.5909C72.0103 70.5909 71.5927 70.5284 71.2433 70.4034C70.8938 70.2812 70.6026 70.1193 70.3697 69.9176C70.1396 69.7188 69.9563 69.5057 69.82 69.2784L70.6211 68.7159C70.712 68.8352 70.8271 68.9716 70.9663 69.125C71.1055 69.2812 71.2958 69.4162 71.5373 69.5298C71.7816 69.6463 72.1012 69.7045 72.4961 69.7045C73.0245 69.7045 73.4606 69.5767 73.8043 69.321C74.1481 69.0653 74.32 68.6648 74.32 68.1193V66.7898H74.2347C74.1609 66.9091 74.0558 67.0568 73.9194 67.233C73.7859 67.4062 73.5927 67.5611 73.3398 67.6974C73.0898 67.831 72.7518 67.8977 72.3256 67.8977C71.7972 67.8977 71.3228 67.7727 70.9023 67.5227C70.4847 67.2727 70.1538 66.9091 69.9094 66.4318C69.668 65.9545 69.5472 65.375 69.5472 64.6932C69.5472 64.0227 69.6651 63.4389 69.9009 62.9418C70.1367 62.4418 70.4648 62.0554 70.8853 61.7827C71.3058 61.5071 71.7915 61.3693 72.3427 61.3693C72.7688 61.3693 73.1069 61.4403 73.3569 61.5824C73.6097 61.7216 73.8029 61.8807 73.9364 62.0597C74.0728 62.2358 74.1779 62.3807 74.2518 62.4943H74.354V61.4545H75.3256V68.1875C75.3256 68.75 75.1978 69.2074 74.9421 69.5597C74.6893 69.9148 74.3484 70.1747 73.9194 70.3395C73.4933 70.5071 73.0188 70.5909 72.4961 70.5909ZM72.462 66.9943C72.8654 66.9943 73.2063 66.902 73.4847 66.7173C73.7631 66.5327 73.9748 66.267 74.1197 65.9205C74.2646 65.5739 74.337 65.1591 74.337 64.6761C74.337 64.2045 74.266 63.7884 74.1239 63.4276C73.9819 63.0668 73.7717 62.7841 73.4933 62.5795C73.2148 62.375 72.8711 62.2727 72.462 62.2727C72.0359 62.2727 71.6808 62.3807 71.3967 62.5966C71.1154 62.8125 70.9038 63.1023 70.7617 63.4659C70.6225 63.8295 70.5529 64.233 70.5529 64.6761C70.5529 65.1307 70.6239 65.5327 70.766 65.8821C70.9109 66.2287 71.1239 66.5014 71.4052 66.7003C71.6893 66.8963 72.0415 66.9943 72.462 66.9943ZM77.1665 68V61.4545H78.1722V68H77.1665ZM77.6779 60.3636C77.4819 60.3636 77.3129 60.2969 77.1708 60.1634C77.0316 60.0298 76.962 59.8693 76.962 59.6818C76.962 59.4943 77.0316 59.3338 77.1708 59.2003C77.3129 59.0668 77.4819 59 77.6779 59C77.8739 59 78.0415 59.0668 78.1808 59.2003C78.3228 59.3338 78.3938 59.4943 78.3938 59.6818C78.3938 59.8693 78.3228 60.0298 78.1808 60.1634C78.0415 60.2969 77.8739 60.3636 77.6779 60.3636ZM81.0199 64.0625V68H80.0142V61.4545H80.9858V62.4773H81.071C81.2244 62.1449 81.4574 61.8778 81.7699 61.6761C82.0824 61.4716 82.4858 61.3693 82.9801 61.3693C83.4233 61.3693 83.8111 61.4602 84.1435 61.642C84.4759 61.821 84.7344 62.0938 84.919 62.4602C85.1037 62.8239 85.196 63.2841 85.196 63.8409V68H84.1903V63.9091C84.1903 63.3949 84.0568 62.9943 83.7898 62.7074C83.5227 62.4176 83.1563 62.2727 82.6903 62.2727C82.3693 62.2727 82.0824 62.3423 81.8295 62.4815C81.5795 62.6207 81.3821 62.8239 81.2372 63.0909C81.0923 63.358 81.0199 63.6818 81.0199 64.0625Z" fill="#161B22"/>
<path d="M657.559 41.4091H661.982L665.024 48.8239H665.178L668.22 41.4091H672.644V54.5H669.166V46.9318H669.064L666.149 54.3977H664.053L661.138 46.8807H661.036V54.5H657.559V41.4091ZM677.342 41.4091V54.5H673.788V41.4091H677.342ZM678.128 44.2727V41.4091H689.506V44.2727H685.569V54.5H682.066V44.2727H678.128Z" fill="#C9D1D9" fill-opacity="0.8"/>
<rect x="1" y="1" width="728" height="93" rx="3" stroke="#161B22" stroke-width="2"/>
</svg>
