<svg width="70" height="100" viewBox="0 0 70 100" fill="none" xmlns="http://www.w3.org/2000/svg">
<rect x="0.5" y="0.5" width="69" height="99" rx="9.5" fill="#0D1117"/>
<path d="M10 12C10 10.8954 10.8954 10 12 10H22.5V15C22.5 19.1421 19.1421 22.5 15 22.5H10V12Z" fill="#C9D1D9"/>
<path d="M10 35H22.5V42.5C22.5 45.2614 20.2614 47.5 17.5 47.5H10V35Z" fill="#C9D1D9"/>
<path d="M10 22.5H15C19.1421 22.5 22.5 25.8579 22.5 30V35H10V22.5Z" fill="#C9D1D9"/>
<path d="M10 47.5H17.5C20.2614 47.5 22.5 49.7386 22.5 52.5V60H12C10.8954 60 10 59.1046 10 58V47.5Z" fill="#C9D1D9"/>
<path d="M22.5 10H35V22.5H30C25.8579 22.5 22.5 19.1421 22.5 15V10Z" fill="#C9D1D9"/>
<path d="M22.5 35C29.4036 35 35 40.5964 35 47.5H27.5C24.7386 47.5 22.5 45.2614 22.5 42.5V35Z" fill="#C9D1D9"/>
<path d="M22.5 30C22.5 25.8579 25.8579 22.5 30 22.5H35C35 29.4036 29.4036 35 22.5 35V30Z" fill="#C9D1D9"/>
<path d="M22.5 52.5C22.5 49.7386 24.7386 47.5 27.5 47.5H35C35 54.4036 29.4036 60 22.5 60V52.5Z" fill="#C9D1D9"/>
<path d="M35 10H47.5V18.75C47.5 20.8211 45.8211 22.5 43.75 22.5H35V10Z" fill="#C9D1D9"/>
<path d="M35 22.5H43.75C45.8211 22.5 47.5 24.1789 47.5 26.25V35C40.5964 35 35 29.4036 35 22.5Z" fill="#C9D1D9"/>
<path d="M47.5 10H58C59.1046 10 60 10.8954 60 12V22.5H51.25C49.1789 22.5 47.5 20.8211 47.5 18.75V10Z" fill="#C9D1D9"/>
<path d="M47.5 26.25C47.5 24.1789 49.1789 22.5 51.25 22.5H60C60 29.4036 54.4036 35 47.5 35V26.25Z" fill="#C9D1D9"/>
<path d="M22.5 10H12C10.8954 10 10 10.8954 10 12V22.5M22.5 10V15M22.5 10H35M10 22.5H15M10 22.5V35M22.5 15C22.5 19.1421 19.1421 22.5 15 22.5M22.5 15C22.5 19.1421 25.8579 22.5 30 22.5M15 22.5C19.1421 22.5 22.5 25.8579 22.5 30M10 35H22.5M10 35V47.5M22.5 35V42.5M22.5 35V30M22.5 35C29.4036 35 35 40.5964 35 47.5M22.5 35C29.4036 35 35 29.4036 35 22.5M10 47.5H17.5M10 47.5V58C10 59.1046 10.8954 60 12 60H22.5M22.5 42.5C22.5 45.2614 20.2614 47.5 17.5 47.5M22.5 42.5C22.5 45.2614 24.7386 47.5 27.5 47.5M17.5 47.5C20.2614 47.5 22.5 49.7386 22.5 52.5M22.5 30C22.5 25.8579 25.8579 22.5 30 22.5M22.5 60V52.5M22.5 60C29.4036 60 35 54.4036 35 47.5M22.5 52.5C22.5 49.7386 24.7386 47.5 27.5 47.5M35 10V22.5M35 10H47.5M35 22.5H30M35 22.5H43.75M35 22.5C35 29.4036 40.5964 35 47.5 35M35 47.5H27.5M47.5 10V18.75M47.5 10H58C59.1046 10 60 10.8954 60 12V22.5M47.5 18.75C47.5 20.8211 45.8211 22.5 43.75 22.5M47.5 18.75C47.5 20.8211 49.1789 22.5 51.25 22.5M43.75 22.5C45.8211 22.5 47.5 24.1789 47.5 26.25M47.5 35V26.25M47.5 35C54.4036 35 60 29.4036 60 22.5M47.5 26.25C47.5 24.1789 49.1789 22.5 51.25 22.5M60 22.5H51.25" stroke="#0D1117"/>
<path d="M13.06 79.12C12.52 79.12 12.0533 79.03 11.66 78.85C11.2733 78.6633 10.9433 78.4167 10.67 78.11L11.21 77.64C11.4567 77.9 11.7267 78.1 12.02 78.24C12.3133 78.38 12.6667 78.45 13.08 78.45C13.48 78.45 13.8067 78.38 14.06 78.24C14.32 78.0933 14.45 77.8667 14.45 77.56C14.45 77.4267 14.4233 77.3167 14.37 77.23C14.3233 77.1367 14.2567 77.0633 14.17 77.01C14.0833 76.9567 13.9867 76.9167 13.88 76.89C13.7733 76.8567 13.66 76.83 13.54 76.81L12.73 76.69C12.55 76.6633 12.3533 76.6267 12.14 76.58C11.9333 76.5333 11.7433 76.46 11.57 76.36C11.3967 76.2533 11.25 76.1133 11.13 75.94C11.0167 75.7667 10.96 75.54 10.96 75.26C10.96 75 11.01 74.7767 11.11 74.59C11.2167 74.3967 11.3633 74.2367 11.55 74.11C11.7367 73.9767 11.9567 73.88 12.21 73.82C12.4633 73.7533 12.74 73.72 13.04 73.72C13.5067 73.72 13.91 73.7933 14.25 73.94C14.5967 74.0867 14.8933 74.29 15.14 74.55L14.62 75.04C14.56 74.9667 14.4833 74.8933 14.39 74.82C14.3033 74.74 14.1933 74.67 14.06 74.61C13.9333 74.5433 13.7833 74.49 13.61 74.45C13.4367 74.41 13.2367 74.39 13.01 74.39C12.6033 74.39 12.29 74.46 12.07 74.6C11.8567 74.74 11.75 74.9433 11.75 75.21C11.75 75.3433 11.7733 75.4567 11.82 75.55C11.8733 75.6367 11.9433 75.7067 12.03 75.76C12.1167 75.8133 12.2133 75.8567 12.32 75.89C12.4333 75.9167 12.5467 75.94 12.66 75.96L13.47 76.08C13.6567 76.1067 13.8533 76.1433 14.06 76.19C14.2667 76.2367 14.4567 76.3133 14.63 76.42C14.8033 76.52 14.9467 76.6567 15.06 76.83C15.18 77.0033 15.24 77.23 15.24 77.51C15.24 78.0233 15.04 78.42 14.64 78.7C14.2467 78.98 13.72 79.12 13.06 79.12ZM20.8461 79C20.5328 79 20.3094 78.92 20.1761 78.76C20.0428 78.6 19.9594 78.4 19.9261 78.16H19.8761C19.7628 78.46 19.5794 78.6967 19.3261 78.87C19.0794 79.0367 18.7461 79.12 18.3261 79.12C17.7861 79.12 17.3561 78.98 17.0361 78.7C16.7161 78.42 16.5561 78.0367 16.5561 77.55C16.5561 77.07 16.7294 76.7 17.0761 76.44C17.4294 76.18 17.9961 76.05 18.7761 76.05H19.8761V75.54C19.8761 75.16 19.7694 74.8767 19.5561 74.69C19.3428 74.4967 19.0394 74.4 18.6461 74.4C18.2994 74.4 18.0161 74.47 17.7961 74.61C17.5761 74.7433 17.3994 74.9267 17.2661 75.16L16.7261 74.76C16.7928 74.6267 16.8828 74.4967 16.9961 74.37C17.1094 74.2433 17.2494 74.1333 17.4161 74.04C17.5828 73.94 17.7728 73.8633 17.9861 73.81C18.1994 73.75 18.4361 73.72 18.6961 73.72C19.3028 73.72 19.7828 73.8733 20.1361 74.18C20.4961 74.4867 20.6761 74.9133 20.6761 75.46V78.3H21.3961V79H20.8461ZM18.4661 78.45C18.6728 78.45 18.8594 78.4267 19.0261 78.38C19.1994 78.3267 19.3494 78.26 19.4761 78.18C19.6028 78.0933 19.6994 77.9933 19.7661 77.88C19.8394 77.76 19.8761 77.6333 19.8761 77.5V76.65H18.7761C18.2961 76.65 17.9461 76.7167 17.7261 76.85C17.5061 76.9833 17.3961 77.1767 17.3961 77.43V77.64C17.3961 77.9067 17.4894 78.11 17.6761 78.25C17.8694 78.3833 18.1328 78.45 18.4661 78.45ZM24.8522 79.12C24.3122 79.12 23.8455 79.03 23.4522 78.85C23.0655 78.6633 22.7355 78.4167 22.4622 78.11L23.0022 77.64C23.2489 77.9 23.5189 78.1 23.8122 78.24C24.1055 78.38 24.4589 78.45 24.8722 78.45C25.2722 78.45 25.5989 78.38 25.8522 78.24C26.1122 78.0933 26.2422 77.8667 26.2422 77.56C26.2422 77.4267 26.2155 77.3167 26.1622 77.23C26.1155 77.1367 26.0489 77.0633 25.9622 77.01C25.8755 76.9567 25.7789 76.9167 25.6722 76.89C25.5655 76.8567 25.4522 76.83 25.3322 76.81L24.5222 76.69C24.3422 76.6633 24.1455 76.6267 23.9322 76.58C23.7255 76.5333 23.5355 76.46 23.3622 76.36C23.1889 76.2533 23.0422 76.1133 22.9222 75.94C22.8089 75.7667 22.7522 75.54 22.7522 75.26C22.7522 75 22.8022 74.7767 22.9022 74.59C23.0089 74.3967 23.1555 74.2367 23.3422 74.11C23.5289 73.9767 23.7489 73.88 24.0022 73.82C24.2555 73.7533 24.5322 73.72 24.8322 73.72C25.2989 73.72 25.7022 73.7933 26.0422 73.94C26.3889 74.0867 26.6855 74.29 26.9322 74.55L26.4122 75.04C26.3522 74.9667 26.2755 74.8933 26.1822 74.82C26.0955 74.74 25.9855 74.67 25.8522 74.61C25.7255 74.5433 25.5755 74.49 25.4022 74.45C25.2289 74.41 25.0289 74.39 24.8022 74.39C24.3955 74.39 24.0822 74.46 23.8622 74.6C23.6489 74.74 23.5422 74.9433 23.5422 75.21C23.5422 75.3433 23.5655 75.4567 23.6122 75.55C23.6655 75.6367 23.7355 75.7067 23.8222 75.76C23.9089 75.8133 24.0055 75.8567 24.1122 75.89C24.2255 75.9167 24.3389 75.94 24.4522 75.96L25.2622 76.08C25.4489 76.1067 25.6455 76.1433 25.8522 76.19C26.0589 76.2367 26.2489 76.3133 26.4222 76.42C26.5955 76.52 26.7389 76.6567 26.8522 76.83C26.9722 77.0033 27.0322 77.23 27.0322 77.51C27.0322 78.0233 26.8322 78.42 26.4322 78.7C26.0389 78.98 25.5122 79.12 24.8522 79.12ZM28.6683 71.6H29.4683V74.68H29.5083C29.5616 74.5533 29.6283 74.4333 29.7083 74.32C29.7883 74.2 29.8849 74.0967 29.9983 74.01C30.1183 73.9233 30.2583 73.8533 30.4183 73.8C30.5783 73.7467 30.7649 73.72 30.9783 73.72C31.5183 73.72 31.9516 73.8933 32.2783 74.24C32.6049 74.58 32.7683 75.0633 32.7683 75.69V79H31.9683V75.83C31.9683 75.3567 31.8649 75.0067 31.6583 74.78C31.4516 74.5467 31.1483 74.43 30.7483 74.43C30.5883 74.43 30.4316 74.45 30.2783 74.49C30.1249 74.53 29.9883 74.59 29.8683 74.67C29.7483 74.75 29.6516 74.8533 29.5783 74.98C29.5049 75.1067 29.4683 75.2533 29.4683 75.42V79H28.6683V71.6ZM38.5344 79C38.221 79 37.9977 78.92 37.8644 78.76C37.731 78.6 37.6477 78.4 37.6144 78.16H37.5644C37.451 78.46 37.2677 78.6967 37.0144 78.87C36.7677 79.0367 36.4344 79.12 36.0144 79.12C35.4744 79.12 35.0444 78.98 34.7244 78.7C34.4044 78.42 34.2444 78.0367 34.2444 77.55C34.2444 77.07 34.4177 76.7 34.7644 76.44C35.1177 76.18 35.6844 76.05 36.4644 76.05H37.5644V75.54C37.5644 75.16 37.4577 74.8767 37.2444 74.69C37.031 74.4967 36.7277 74.4 36.3344 74.4C35.9877 74.4 35.7044 74.47 35.4844 74.61C35.2644 74.7433 35.0877 74.9267 34.9544 75.16L34.4144 74.76C34.481 74.6267 34.571 74.4967 34.6844 74.37C34.7977 74.2433 34.9377 74.1333 35.1044 74.04C35.271 73.94 35.461 73.8633 35.6744 73.81C35.8877 73.75 36.1244 73.72 36.3844 73.72C36.991 73.72 37.471 73.8733 37.8244 74.18C38.1844 74.4867 38.3644 74.9133 38.3644 75.46V78.3H39.0844V79H38.5344ZM36.1544 78.45C36.361 78.45 36.5477 78.4267 36.7144 78.38C36.8877 78.3267 37.0377 78.26 37.1644 78.18C37.291 78.0933 37.3877 77.9933 37.4544 77.88C37.5277 77.76 37.5644 77.6333 37.5644 77.5V76.65H36.4644C35.9844 76.65 35.6344 76.7167 35.4144 76.85C35.1944 76.9833 35.0844 77.1767 35.0844 77.43V77.64C35.0844 77.9067 35.1777 78.11 35.3644 78.25C35.5577 78.3833 35.821 78.45 36.1544 78.45ZM13.18 89.12C12.8067 89.12 12.4733 89.0567 12.18 88.93C11.8933 88.7967 11.65 88.6133 11.45 88.38C11.25 88.1467 11.0967 87.8633 10.99 87.53C10.89 87.1967 10.84 86.8267 10.84 86.42C10.84 86.0133 10.8933 85.6433 11 85.31C11.1067 84.9767 11.26 84.6933 11.46 84.46C11.66 84.22 11.9033 84.0367 12.19 83.91C12.4767 83.7833 12.8033 83.72 13.17 83.72C13.67 83.72 14.0767 83.83 14.39 84.05C14.7033 84.27 14.9333 84.5567 15.08 84.91L14.44 85.25C14.3467 84.9833 14.19 84.7767 13.97 84.63C13.7567 84.4833 13.49 84.41 13.17 84.41C12.9367 84.41 12.7267 84.45 12.54 84.53C12.36 84.6033 12.2067 84.71 12.08 84.85C11.9533 84.99 11.8567 85.1567 11.79 85.35C11.73 85.5433 11.7 85.7533 11.7 85.98V86.86C11.7 87.0867 11.73 87.2967 11.79 87.49C11.8567 87.6833 11.9533 87.85 12.08 87.99C12.2067 88.13 12.3633 88.24 12.55 88.32C12.7367 88.3933 12.95 88.43 13.19 88.43C13.5367 88.43 13.8233 88.35 14.05 88.19C14.2767 88.03 14.4567 87.81 14.59 87.53L15.16 87.92C15.0067 88.2667 14.7667 88.5533 14.44 88.78C14.12 89.0067 13.7 89.12 13.18 89.12ZM16.8761 81.6H17.6761V84.68H17.7161C17.7694 84.5533 17.8361 84.4333 17.9161 84.32C17.9961 84.2 18.0928 84.0967 18.2061 84.01C18.3261 83.9233 18.4661 83.8533 18.6261 83.8C18.7861 83.7467 18.9728 83.72 19.1861 83.72C19.7261 83.72 20.1594 83.8933 20.4861 84.24C20.8128 84.58 20.9761 85.0633 20.9761 85.69V89H20.1761V85.83C20.1761 85.3567 20.0728 85.0067 19.8661 84.78C19.6594 84.5467 19.3561 84.43 18.9561 84.43C18.7961 84.43 18.6394 84.45 18.4861 84.49C18.3328 84.53 18.1961 84.59 18.0761 84.67C17.9561 84.75 17.8594 84.8533 17.7861 84.98C17.7128 85.1067 17.6761 85.2533 17.6761 85.42V89H16.8761V81.6ZM24.8822 89.12C24.5089 89.12 24.1722 89.0567 23.8722 88.93C23.5789 88.8033 23.3255 88.6233 23.1122 88.39C22.9055 88.15 22.7455 87.8667 22.6322 87.54C22.5189 87.2067 22.4622 86.8367 22.4622 86.43C22.4622 86.0167 22.5189 85.6433 22.6322 85.31C22.7522 84.9767 22.9155 84.6933 23.1222 84.46C23.3289 84.22 23.5755 84.0367 23.8622 83.91C24.1555 83.7833 24.4789 83.72 24.8322 83.72C25.1789 83.72 25.4922 83.7833 25.7722 83.91C26.0589 84.0367 26.3022 84.2133 26.5022 84.44C26.7022 84.66 26.8555 84.9233 26.9622 85.23C27.0689 85.5367 27.1222 85.8733 27.1222 86.24V86.62H23.3022V86.86C23.3022 87.0867 23.3389 87.2967 23.4122 87.49C23.4855 87.6833 23.5889 87.85 23.7222 87.99C23.8622 88.13 24.0289 88.24 24.2222 88.32C24.4222 88.3933 24.6422 88.43 24.8822 88.43C25.2289 88.43 25.5289 88.35 25.7822 88.19C26.0355 88.03 26.2289 87.81 26.3622 87.53L26.9522 87.93C26.7989 88.2767 26.5422 88.5633 26.1822 88.79C25.8289 89.01 25.3955 89.12 24.8822 89.12ZM24.8322 84.38C24.6122 84.38 24.4089 84.42 24.2222 84.5C24.0355 84.58 23.8722 84.69 23.7322 84.83C23.5989 84.97 23.4922 85.1367 23.4122 85.33C23.3389 85.5167 23.3022 85.7233 23.3022 85.95V86.02H26.2622V85.91C26.2622 85.6833 26.2255 85.4767 26.1522 85.29C26.0855 85.1033 25.9889 84.9433 25.8622 84.81C25.7422 84.67 25.5922 84.5633 25.4122 84.49C25.2389 84.4167 25.0455 84.38 24.8322 84.38ZM28.6383 83.84H29.4383V84.68H29.4783C29.8116 84.04 30.3416 83.72 31.0683 83.72C31.7016 83.72 32.1949 83.9567 32.5483 84.43C32.9083 84.9033 33.0883 85.5667 33.0883 86.42C33.0883 87.2733 32.9083 87.9367 32.5483 88.41C32.1949 88.8833 31.7016 89.12 31.0683 89.12C30.3416 89.12 29.8116 88.8 29.4783 88.16H29.4383V91H28.6383V83.84ZM30.7583 88.41C31.2249 88.41 31.5849 88.27 31.8383 87.99C32.0983 87.7033 32.2283 87.3267 32.2283 86.86V85.98C32.2283 85.5133 32.0983 85.14 31.8383 84.86C31.5849 84.5733 31.2249 84.43 30.7583 84.43C30.5783 84.43 30.4083 84.4533 30.2483 84.5C30.0883 84.5467 29.9483 84.6167 29.8283 84.71C29.7083 84.7967 29.6116 84.9067 29.5383 85.04C29.4716 85.1667 29.4383 85.3167 29.4383 85.49V87.35C29.4383 87.5233 29.4716 87.6767 29.5383 87.81C29.6116 87.9367 29.7083 88.0467 29.8283 88.14C29.9483 88.2267 30.0883 88.2933 30.2483 88.34C30.4083 88.3867 30.5783 88.41 30.7583 88.41ZM37.8044 88.16H37.7644C37.711 88.2867 37.6444 88.41 37.5644 88.53C37.4844 88.6433 37.3844 88.7433 37.2644 88.83C37.151 88.9167 37.0144 88.9867 36.8544 89.04C36.6944 89.0933 36.5077 89.12 36.2944 89.12C35.7544 89.12 35.321 88.95 34.9944 88.61C34.6677 88.2633 34.5044 87.7767 34.5044 87.15V83.84H35.3044V87.01C35.3044 87.4833 35.4077 87.8367 35.6144 88.07C35.821 88.2967 36.1244 88.41 36.5244 88.41C36.6844 88.41 36.841 88.39 36.9944 88.35C37.1477 88.31 37.2844 88.25 37.4044 88.17C37.5244 88.09 37.621 87.99 37.6944 87.87C37.7677 87.7433 37.8044 87.5933 37.8044 87.42V83.84H38.6044V89H37.8044V88.16ZM40.4605 81.6H41.2605V84.68H41.3005C41.3538 84.5533 41.4205 84.4333 41.5005 84.32C41.5805 84.2 41.6771 84.0967 41.7905 84.01C41.9105 83.9233 42.0505 83.8533 42.2105 83.8C42.3705 83.7467 42.5571 83.72 42.7705 83.72C43.3105 83.72 43.7438 83.8933 44.0705 84.24C44.3971 84.58 44.5605 85.0633 44.5605 85.69V89H43.7605V85.83C43.7605 85.3567 43.6571 85.0067 43.4505 84.78C43.2438 84.5467 42.9405 84.43 42.5405 84.43C42.3805 84.43 42.2238 84.45 42.0705 84.49C41.9171 84.53 41.7805 84.59 41.6605 84.67C41.5405 84.75 41.4438 84.8533 41.3705 84.98C41.2971 85.1067 41.2605 85.2533 41.2605 85.42V89H40.4605V81.6ZM50.3266 89C50.0132 89 49.7899 88.92 49.6566 88.76C49.5232 88.6 49.4399 88.4 49.4066 88.16H49.3566C49.2432 88.46 49.0599 88.6967 48.8066 88.87C48.5599 89.0367 48.2266 89.12 47.8066 89.12C47.2666 89.12 46.8366 88.98 46.5166 88.7C46.1966 88.42 46.0366 88.0367 46.0366 87.55C46.0366 87.07 46.2099 86.7 46.5566 86.44C46.9099 86.18 47.4766 86.05 48.2566 86.05H49.3566V85.54C49.3566 85.16 49.2499 84.8767 49.0366 84.69C48.8232 84.4967 48.5199 84.4 48.1266 84.4C47.7799 84.4 47.4966 84.47 47.2766 84.61C47.0566 84.7433 46.8799 84.9267 46.7466 85.16L46.2066 84.76C46.2732 84.6267 46.3632 84.4967 46.4766 84.37C46.5899 84.2433 46.7299 84.1333 46.8966 84.04C47.0632 83.94 47.2532 83.8633 47.4666 83.81C47.6799 83.75 47.9166 83.72 48.1766 83.72C48.7832 83.72 49.2632 83.8733 49.6166 84.18C49.9766 84.4867 50.1566 84.9133 50.1566 85.46V88.3H50.8766V89H50.3266ZM47.9466 88.45C48.1532 88.45 48.3399 88.4267 48.5066 88.38C48.6799 88.3267 48.8299 88.26 48.9566 88.18C49.0832 88.0933 49.1799 87.9933 49.2466 87.88C49.3199 87.76 49.3566 87.6333 49.3566 87.5V86.65H48.2566C47.7766 86.65 47.4266 86.7167 47.2066 86.85C46.9866 86.9833 46.8766 87.1767 46.8766 87.43V87.64C46.8766 87.9067 46.9699 88.11 47.1566 88.25C47.3499 88.3833 47.6132 88.45 47.9466 88.45Z" fill="#C9D1D9"/>
<rect x="0.5" y="0.5" width="69" height="99" rx="9.5" stroke="#1B222C"/>
</svg>
